<svg width="400" height="120" viewBox="0 0 105.833 31.75" xmlns="http://www.w3.org/2000/svg"><g aria-label="HandMeDown" style="font-size:16.9333px;line-height:1.25;stroke-width:.264583"><path d="M20.158 22.06h.39c-.102-1.168-.153-1.862-.153-2.878v-2.744c0-.474 0-.71-.034-1.168-.118-1.49-1.084-2.354-2.828-2.354-1.76 0-3.065 1.186-3.166 2.676h.372c.203-1.66 1.541-2.32 2.794-2.32 1.456 0 2.337.711 2.456 2.049.033.39.033.728.033 1.151v.457h-.575c-2.777 0-5.419.898-5.419 2.98 0 1.592 1.05 2.388 2.743 2.388 1.202 0 2.252-.525 2.879-1.524l.39-.897zm-3.336-.118c-1.626 0-2.388-.813-2.388-2.05 0-2.031 2.98-2.76 5.588-2.59v1.22c0 1.76-1.287 3.42-3.2 3.42zM29.387 15.66c-.187-1.745-1.27-2.744-3.065-2.744-1.101 0-2.134.457-2.794 1.389l-.356.88v-2.032h-.373v8.907h.373v-5.283c0-2.37 1.524-3.505 3.15-3.505 1.693 0 2.523 1.016 2.692 2.523.05.457.068.847.068 1.473v4.792h.372v-4.944c0-.728-.017-1-.067-1.457zM38.581 9.614h-.372v5.571l-.491-1.117c-.728-.813-1.457-1.152-2.591-1.152-2.15 0-4.047 1.609-4.047 4.759 0 2.709 1.524 4.622 3.844 4.622 1.219 0 2.015-.304 2.81-1.253l.475-1.016v2.032h.372Zm-3.623 12.328c-2.253 0-3.472-1.998-3.472-4.335 0-2.557 1.507-4.335 3.64-4.335 1.39 0 3.083.847 3.083 3.76v.998c0 2.93-1.49 3.912-3.251 3.912zM52.026 10.376h-.542l-4.758 11.329-4.724-11.329h-.593V22.06h.373v-6.773c0-1.49 0-3.15-.034-4.623.576 1.473 1.27 3.15 1.88 4.623l2.844 6.773h.474l2.862-6.773c.627-1.473 1.304-3.15 1.88-4.623-.034 1.473-.017 3.133-.017 4.623v6.773h.355zM61.441 17.37c0-2.219-1.185-4.454-3.742-4.454-2.201 0-3.962 1.846-3.962 4.657 0 3.116 1.76 4.724 3.826 4.724 1.694 0 3.2-.999 3.743-2.963h-.373c-.525 1.812-1.93 2.608-3.336 2.608-1.642 0-3.403-1.169-3.471-4.25h7.298c.017-.187.017-.255.017-.322zm-3.776-4.098c1.524 0 3.336.982 3.404 4.064h-6.943c.068-2.794 1.964-4.064 3.54-4.064zM68.282 10.41c-.423-.034-.694-.034-1.236-.034h-3.37V22.06h3.37c.542 0 .898 0 1.49-.067 1.575-.187 4.369-1.71 4.369-5.826 0-4.131-2.828-5.621-4.623-5.757zm.203 11.227c-.558.068-.914.068-1.439.068H64.05V10.732h2.997c.61 0 .847 0 1.22.034 1.845.17 4.233 1.727 4.233 5.401 0 3.506-2.168 5.25-4.014 5.47zM78.239 12.916c-2.506 0-4.183 1.88-4.183 4.708 0 2.81 1.677 4.673 4.183 4.673s4.183-1.862 4.183-4.673c0-2.828-1.677-4.708-4.183-4.708zm0 9.026c-1.93 0-3.776-1.338-3.776-4.318 0-2.997 1.846-4.352 3.776-4.352 1.93 0 3.776 1.355 3.776 4.352 0 2.98-1.846 4.318-3.776 4.318zM94.918 13.153h-.406l-2.608 8.484-2.557-8.45h-.525l-2.557 8.5-2.692-8.534h-.423l2.828 8.907h.575l2.54-8.45 2.54 8.45h.474zM102.843 15.66c-.186-1.745-1.27-2.744-3.065-2.744-1.1 0-2.133.457-2.794 1.389l-.355.88v-2.032h-.373v8.907h.373v-5.283c0-2.37 1.524-3.505 3.15-3.505 1.692 0 2.522 1.016 2.692 2.523.05.457.067.847.067 1.473v4.792h.373v-4.944c0-.728-.017-1-.068-1.457z" style="font-family:Aileron;-inkscape-font-specification:'Aileron weight=250'"/><path style="fill:none;stroke:#000;stroke-width:.370417;stroke-linecap:round;stroke-linejoin:round;stroke-miterlimit:4;stroke-dasharray:none" d="M11.776 8.075a4.438 6.566 0 0 1-2.219 5.686 4.438 6.566 0 0 1-4.437 0A4.438 6.566 0 0 1 2.9 8.075"/><path style="fill:none;stroke:#000;stroke-width:.370417;stroke-linecap:round;stroke-linejoin:round;stroke-miterlimit:4;stroke-dasharray:none" d="M11.856-21.202a4.438 6.566 0 0 1-2.219 5.687 4.438 6.566 0 0 1-4.437 0 4.438 6.566 0 0 1-2.22-5.687" transform="scale(1 -1)"/><ellipse style="fill:none;stroke:#000;stroke-width:.364354;stroke-linecap:round;stroke-linejoin:round;stroke-miterlimit:4;stroke-dasharray:none" cx="7.365" cy="11.952" rx="1.669" ry="1.282"/><path style="fill:none;stroke:#000;stroke-width:.370417;stroke-linecap:round;stroke-linejoin:round;stroke-miterlimit:4;stroke-dasharray:none" d="M11.776 8.075a4.438 6.566 0 0 1-2.219 5.686 4.438 6.566 0 0 1-4.437 0A4.438 6.566 0 0 1 2.9 8.075"/><path style="fill:none;stroke:#000;stroke-width:.370417;stroke-linecap:round;stroke-linejoin:round;stroke-miterlimit:4;stroke-dasharray:none" d="M11.856-21.202a4.438 6.566 0 0 1-2.219 5.687 4.438 6.566 0 0 1-4.437 0 4.438 6.566 0 0 1-2.22-5.687" transform="scale(1 -1)"/><ellipse style="fill:none;stroke:#000;stroke-width:.364354;stroke-linecap:round;stroke-linejoin:round;stroke-miterlimit:4;stroke-dasharray:none" cx="7.365" cy="11.952" rx="1.669" ry="1.282"/></g></svg>